<svg width="32" height="32" viewBox="0 0 32 32" fill="none" xmlns="http://www.w3.org/2000/svg">
<path d="M21.8134 18.667C21.9201 17.787 22.0001 16.907 22.0001 16.0003C22.0001 15.0937 21.9201 14.2137 21.8134 13.3337H26.3201C26.5334 14.187 26.6667 15.0803 26.6667 16.0003C26.6667 16.9203 26.5334 17.8137 26.3201 18.667M19.4534 26.0803C20.2534 24.6003 20.8667 23.0003 21.2934 21.3337H25.2267C23.935 23.558 21.8856 25.243 19.4534 26.0803ZM19.1201 18.667H12.8801C12.7467 17.787 12.6667 16.907 12.6667 16.0003C12.6667 15.0937 12.7467 14.2003 12.8801 13.3337H19.1201C19.2401 14.2003 19.3334 15.0937 19.3334 16.0003C19.3334 16.907 19.2401 17.787 19.1201 18.667ZM16.0001 26.6137C14.8934 25.0137 14.0001 23.2403 13.4534 21.3337H18.5467C18.0001 23.2403 17.1067 25.0137 16.0001 26.6137ZM10.6667 10.667H6.77341C8.05189 8.43661 10.0998 6.74897 12.5334 5.92033C11.7334 7.40033 11.1334 9.00033 10.6667 10.667ZM6.77341 21.3337H10.6667C11.1334 23.0003 11.7334 24.6003 12.5334 26.0803C10.1049 25.2425 8.05988 23.5573 6.77341 21.3337ZM5.68008 18.667C5.46675 17.8137 5.33341 16.9203 5.33341 16.0003C5.33341 15.0803 5.46675 14.187 5.68008 13.3337H10.1867C10.0801 14.2137 10.0001 15.0937 10.0001 16.0003C10.0001 16.907 10.0801 17.787 10.1867 18.667M16.0001 5.37366C17.1067 6.97366 18.0001 8.76033 18.5467 10.667H13.4534C14.0001 8.76033 14.8934 6.97366 16.0001 5.37366ZM25.2267 10.667H21.2934C20.8761 9.0156 20.2582 7.42152 19.4534 5.92033C21.9067 6.76033 23.9467 8.45366 25.2267 10.667ZM16.0001 2.66699C8.62675 2.66699 2.66675 8.66699 2.66675 16.0003C2.66675 19.5365 4.07151 22.9279 6.57199 25.4284C7.81011 26.6665 9.27996 27.6487 10.8976 28.3187C12.5153 28.9888 14.2491 29.3337 16.0001 29.3337C19.5363 29.3337 22.9277 27.9289 25.4282 25.4284C27.9287 22.9279 29.3334 19.5365 29.3334 16.0003C29.3334 14.2494 28.9885 12.5156 28.3185 10.8979C27.6484 9.2802 26.6663 7.81035 25.4282 6.57223C24.1901 5.33412 22.7202 4.35199 21.1025 3.68193C19.4849 3.01187 17.751 2.66699 16.0001 2.66699Z" fill="#6FA5D2"/>
</svg>
